<svg xmlns="http://www.w3.org/2000/svg" width="1400" height="960"><title>Group</title><g fill-rule="evenodd"><path d="M1063.76 606.1c3.53 15.27-5.45 29.63-20.7 33.15-15.26 3.53-29.62-5.45-33.14-20.7-3.52-15.26 5.45-29.62 20.7-33.14 15.26-3.5 29.62 5.46 33.14 20.72zm34.52-55.22l22.8 98.72c2.27 9.87-3.95 19.8-13.82 22.1l-143.58 33.14c-9.88 2.28-19.82-3.93-22.1-13.8l-22.8-98.7c-2.27-9.9 3.95-19.83 13.82-22.1l-2.07-8.98 35.9-8.3 2.07 8.98 17.94-4.14 4.83-20.02 53.85-12.43 13.12 15.88 17.94-4.15c9.88-2.28 19.82 3.93 22.1 13.8zm-125.98 48c-1.66-7.18-9.4-12.02-16.57-10.36s-12.02 9.4-10.36 16.57c1.66 7.17 9.4 12 16.57 10.34s12-9.4 10.36-16.57zm109.4 3.1c-5.8-25.14-30.1-40.32-55.22-34.52-25.12 5.8-40.3 30.1-34.5 55.23 5.8 25.12 30.1 40.3 55.23 34.5 25.13-5.8 40.32-30.1 34.52-55.23z"/><path d="M535.6 318.58a34.81 34.81 0 0 1-14.16 7.26c-18.63 4.64-37.47-6.58-42.08-25.08-4.6-18.5 6.75-37.26 25.38-41.9 3.97-1 7.9-1.12 11.75-.75l-28.35-113.68 123.67-30.83 11.63 46.62-22.5 5.6-3.27-13.14-78.7 19.63 24.95 100.08c-13.1 4.5-20.83 18.3-17.44 31.9a26.6 26.6 0 0 0 9.1 14.3zm71.86-126.7l1.87 7.5c-3.84-.36-7.78-.23-11.75.76-18.63 4.65-30 23.4-25.38 41.9 3.68 14.8 16.46 24.93 30.96 26.03a26.58 26.58 0 0 1-4.46-9.45c-3.6-14.4 5.25-28.98 19.74-32.6 3.1-.76 6.15-.86 9.14-.57l-9.05-36.33-11.07 2.76z" opacity=".5"/><path d="M537.75 184.8l22.05 88.42c-3-.3-6.06-.2-9.14.58-14.5 3.62-23.33 18.2-19.74 32.6 3.58 14.38 18.24 23.1 32.72 19.5 14.5-3.6 23.33-18.2 19.74-32.6l-21.64-86.8 61.2-15.28 9.07 36.33c-2.98-.3-6.05-.18-9.13.6-14.5 3.6-23.33 18.2-19.75 32.57 3.6 14.4 18.24 23.12 32.73 19.5 14.5-3.6 23.33-18.2 19.74-32.58l-21.65-86.82-96.2 23.98zm462.35 152.16l-47.46 17.27c-5.24 1.9-7.76 8.2-5.64 14.03l30.8 84.6 25.5-33.24 40.92 9.05-30.8-84.6c-2.1-5.82-8.1-9-13.32-7.1zm-176.34 91.7l-69.92-9.83 2.5-17.78 69.9 9.83-2.48 17.78zm-2.5 17.77l-69.92-9.82-2.5 17.78 69.92 9.83 2.5-17.77zM863 398.76L848.33 503.3l-59.8 44.9-69.9-9.84c-9.67-1.36-16.4-10.25-15.04-19.88l19.58-139.37c1.36-9.62 10.27-16.3 19.93-14.96l104.88 14.74c9.65 1.36 16.38 10.26 15.03 19.88zM834.1 484.2l12.3-87.4-105.5-14.84-19.64 139.85 52.73 7.42 4.92-34.96c1.35-9.66 10.3-16.38 20.02-15l35.16 4.93zM436.16 761.27l-28.48 5.54-4.15-21.36c-.7-3.57-4.95-6.43-8.5-5.74l-56.97 11.07c-3.57.7-6.43 4.94-5.74 8.5l4.15 21.36L308 786.2c-4.28.83-6.58 4.23-5.75 8.5l6.92 35.6 142.4-27.68-6.9-35.6c-.84-4.27-4.24-6.57-8.5-5.74zm-42.72 8.3l-42.73 8.3-2.76-14.23 42.73-8.3 2.77 14.24zm5.33 65.48l-28.48 5.53-2.78-14.25-56.96 11.07 11.07 56.97c.83 4.26 4.23 6.56 8.5 5.73l128.18-24.92c4.28-.82 6.58-4.22 5.75-8.5l-11.08-56.96L396 820.8l2.78 14.26zM143.43 380.18l-126.6 11.07c-10 .88-17.4 9.68-16.5 19.67l11.06 126.6c.87 10 9.67 17.38 19.66 16.5l126.6-11.07c10-.87 17.38-9.67 16.5-19.67l-11.07-126.6c-.88-10-9.68-17.38-19.68-16.5zM27.18 416.7l46.5-4.06 4.08 46.5-46.5 4.08-4.08-46.5zM81.2 532.08c-12.83 1.12-24.16-8.4-25.28-21.22-1.12-12.84 8.38-24.17 21.22-25.3 12.84-1.1 24.17 8.4 25.3 21.23 1.1 12.84-8.4 24.17-21.23 25.3zm21.6-54.6l23.54-48.93 31.68 44.1-55.23 4.82zm818.58-424.1l66.8 46.76-88.94 127.02c-9.17-6.42-11.43-19-5.1-28.2l-.04-.03c-6.5 9.06-19.1 11.25-28.25 4.83-9.05-6.33-11.32-18.64-5.33-27.8l-.1-.1c-6.58 8.8-18.94 10.85-27.97 4.52l88.92-127zm85.33-19.9l-29-20.32c-10.43-7.3-24.82-4.76-32.13 5.66L930.73 40l66.8 46.78 14.84-21.2c7.3-10.42 4.76-24.8-5.66-32.1v-.02zm-174.87 176.2l6 34.08 34.1-6c-3.33-18.83-21.28-31.4-40.1-28.07zm468.1 270.03c1.47-8.36 9.46-13.96 17.82-12.48 8.37 1.47 13.96 9.46 12.5 17.83-1.5 8.37-9.47 13.96-17.84 12.5-8.36-1.5-13.95-9.48-12.48-17.84zm97.18-19.33l-21.37 121.27c-1.97 11.17-12.6 18.62-23.78 16.65l-161.7-28.52c-11.16-1.97-18.6-12.6-16.64-23.78l21.4-121.27c1.96-11.16 12.6-18.6 23.77-16.64l161.7 28.5c11.16 1.97 18.6 12.6 16.64 23.77zm-20.2-3.56l-161.7-28.5-13.26 75.22 48.34-37.78 47.9 76.7 19.34-15.87c9.73-8 24.3-5.43 30.7 5.4l11.88 20.1 16.8-95.26zM195.7 635.83L193.9 656l-20.3-1.77 1.75-20.2L53.5 623.38l-1.77 20.2-20.32-1.78 1.78-20.2c-11.22-.98-21.1 7.25-22.08 18.4L.5 761.15c-.97 11.15 7.33 20.98 18.55 21.97l1.77-20.18 20.3 1.77-1.76 20.18 121.9 10.67 1.75-20.2 20.32 1.78-1.76 20.2c11.22.97 21.1-7.26 22.08-18.42l10.6-121.12c.97-11.15-7.33-20.98-18.55-21.96zm-150.32 111l-21.65-1.9 2.77-31.63 21.64 1.88-2.77 31.64zm4.37-49.95l-21.65-1.9 2.77-31.63 21.65 1.9-2.77 31.63zm33.42 39.83l5.25-59.94 44 34.05-49.25 25.9zm102.07 22.36l-21.64-1.9 2.76-31.63 21.65 1.9-2.76 31.62zm4.37-49.96l-21.63-1.9 2.77-31.63 21.64 1.9-2.77 31.63zM1374 669.7a46.6 46.6 0 0 0-7.48-6.36l1.17-14.44-22.55-6.54-6.6 12.93c-6.46.22-12.87 1.77-18.8 4.7l-11.8-8.26-16.87 16.5 7.74 12.2a47.73 47.73 0 0 0-5.3 18.85l-13 6.2 5.67 23.04 14.3-.68a46.83 46.83 0 0 0 6 7.78 46.62 46.62 0 0 0 7.5 6.35l-1.18 14.43 22.55 6.54 6.6-12.92c6.45-.24 12.86-1.78 18.8-4.7l11.8 8.24 16.86-16.5-7.73-12.2c3.1-5.9 4.85-12.32 5.3-18.85l13-6.22-5.68-23.03-14.3.68a47.37 47.37 0 0 0-6.02-7.8zM1357.45 720c-9.83 9.26-25.48 9-34.97-.6-9.5-9.58-9.22-24.85.6-34.1 9.84-9.26 25.5-9 34.98.6 9.5 9.58 9.22 24.84-.6 34.1zM1280.48 734.9a30.28 30.28 0 0 0-6.28-2.3l-2.74-9.98-15.9 1.5-1.07 10.37a31.88 31.88 0 0 0-10.83 8.05l-9.48-2.47-6.75 15.44 7.86 6.16a36.13 36.13 0 0 0 1.18 14.02l-6.76 7.55 9.16 13.96 8.92-4.17a31.16 31.16 0 0 0 5.7 3.65c2 1 4.1 1.77 6.28 2.3l2.74 10 15.9-1.5 1.07-10.37a31.87 31.87 0 0 0 10.8-8.05l9.48 2.47 6.75-15.44-7.86-6.17c.54-4.75.1-9.5-1.17-14l6.76-7.55-9.16-13.95-8.92 4.17a31.53 31.53 0 0 0-5.7-3.65zm1.34 38.2c-3.82 8.64-13.55 12.37-21.75 8.34-8.2-4.03-11.74-14.3-7.92-22.94 3.82-8.65 13.56-12.38 21.75-8.35 8.2 4.03 11.74 14.3 7.92 22.94zm-41.7-80.13a13.85 13.85 0 0 0-3.1-.72l-1.82-4.7-7.43 1.75.05 5.12a15.74 15.74 0 0 0-4.67 4.62l-4.6-.6-2.36 7.94 4.04 2.5c0 2.32.45 4.6 1.3 6.76l-2.77 4.1 5.1 6.2 3.98-2.6a14.44 14.44 0 0 0 2.9 1.42c1 .37 2.05.6 3.08.73l1.83 4.67 7.43-1.73-.07-5.12a15.72 15.72 0 0 0 4.68-4.62l4.62.6 2.34-7.95-4.04-2.5a18.1 18.1 0 0 0-1.32-6.75l2.78-4.1-5.08-6.22-4 2.6a14.56 14.56 0 0 0-2.88-1.4zm2.88 18.53c-1.36 4.48-5.85 6.93-10.03 5.47-4.2-1.45-6.48-6.25-5.12-10.73 1.36-4.48 5.85-6.93 10.04-5.47 4.17 1.45 6.46 6.26 5.1 10.73zM322.2 523.25l-24.63 2.6a6.2 6.2 0 0 0-5.5 6.8l5.16 49.25a6.2 6.2 0 0 0 6.8 5.5l24.63-2.58a6.2 6.2 0 0 0 5.5-6.8L329 528.75a6.2 6.2 0 0 0-6.8-5.5zm-2.72 59.77l-6.84.72-.28-2.74 6.84-.72.28 2.74zm8.86-7.85l-24.63 2.6-4.44-42.43 24.62-2.6 4.46 42.43zm739.06-406.5l25 128.7c3.08 15.8 18.37 26.1 34.17 23.04l128.7-25 13.9 71.5 65.58-69.2a58.3 58.3 0 0 0 14.9-51.2l-24.84-127.87c-3.07-15.8-18.35-26.1-34.16-23.04l-200.2 38.9c-15.8 3.08-26.12 18.37-23.04 34.17zm-305.46 21c-11.67-2.47-23.47 6.5-26.35 20.04l-10.43 49.05c-1.72 8.13 2.55 15.92 9.55 17.4 7 1.5 14.04-3.9 15.77-12.02l10.4-49.04-8.4-1.8-10.42 49.05c-.58 2.7-2.94 4.5-5.27 4-2.33-.5-3.75-3.1-3.17-5.8l10.42-49.04c1.73-8.12 8.8-13.5 15.8-12 7 1.48 11.28 9.27 9.55 17.4l-10.55 49.65c-2.88 13.55-14.54 21.9-26.2 19.42-11.68-2.48-18.8-15.47-15.93-29.02l5.2-24.52-8.44-1.8-5.2 24.53c-4.04 18.96 5.93 37.14 22.27 40.62 16.34 3.47 32.8-9.1 36.84-28.05l10.4-49.05c2.9-13.54-4.2-26.52-15.86-29zM164.74 96.4c53.45 6.56 91.63 55.42 85.06 108.88-6.56 53.46-55.42 91.64-108.9 85.07-53.45-6.56-91.62-55.43-85.06-108.9C62.4 128 111.27 89.83 164.74 96.4zm3.56-23.86c-67.13-8.25-128.23 39.5-136.47 106.62-8.24 67.13 39.5 128.22 106.62 136.46 67.13 8.25 128.23-39.5 136.47-106.62 8.24-67.13-39.5-128.22-106.62-136.46zm47.66 116.82l-48.87-6 6-48.87-24.44-3-6 48.86-48.87-6-3 24.44 48.86 6-6 48.87 24.43 3 6-48.87 48.86 6 3-24.44zm66.75 229.82l26.16 26.14a18.43 18.43 0 0 1-13.08 5.42c-10.2 0-18.5-8.28-18.5-18.5 0-5.1 2.08-9.72 5.43-13.07zm80.7 49.9l-6.46 6.46L253.62 372.2l6.46-6.45 10.07 1.43c6.9 1 15.45-1.1 19-4.66l35.5-35.5c21.4-21.4 56.1-21.4 77.5 0s21.4 56.1 0 77.48l-35.52 35.53c-3.55 3.55-5.65 12.1-4.66 19l1.43 10.05zm125.85 108.47c15.38 3.83 31.22-6.52 35.36-23.12l18.75-75.15c4.13-16.6-5-33.18-20.37-37-15.4-3.85-31.22 6.5-35.36 23.1l-18.74 75.16c-4.13 16.6 4.98 33.17 20.37 37zm63.16-15.95c-8.27 33.22-39.9 53.9-70.7 46.23-30.8-7.68-49.02-40.8-40.73-74.02l-27.87-6.93c-11.13 44.67 9.8 89.18 47.5 106.2l-11.57 46.44 27.86 6.96L488.46 640c41.3 2.68 80.68-26.8 91.8-71.45l-27.85-6.95zm54.04 53.63l10.47 85.27c.83 6.7 6.96 11.5 13.62 10.7l84.78-10.42c6.66-.8 11.44-6.96 10.62-13.66l-10.47-85.27-109 13.38zm49.6 62.65l-29.72 3.65-.8-6.6 29.7-3.66.83 6.6zm11.8-13.18l-42.95 5.27-.82-6.6 42.95-5.28.8 6.6zm-1.62-13.22l-42.95 5.28-.8-6.6 42.93-5.28.8 6.6h.02zm44.13 18.06l-29.73 3.65-3.65-29.74 29.72-3.65 3.65 29.74zm-5.28-42.94l-84.23 10.34-1.42-11.56 84.23-10.34 1.42 11.56zM436.17-26.64l-28.5 5.53-4.15-21.37c-.7-3.56-4.94-6.43-8.5-5.73l-56.97 11.07c-3.56.7-6.43 4.95-5.73 8.5l4.15 21.37L308-1.73c-4.28.83-6.58 4.24-5.75 8.5l6.92 35.6 142.4-27.67-6.9-35.6c-.84-4.28-4.24-6.57-8.5-5.74zm-42.73 8.3l-42.73 8.3-2.76-14.23 42.73-8.3 2.77 14.24zm5.33 65.47l-28.48 5.54-2.78-14.24-56.96 11.07 11.07 56.97c.83 4.27 4.23 6.56 8.5 5.74l128.18-24.9c4.28-.84 6.57-4.24 5.75-8.5L452.97 21.8 396 32.9l2.77 14.23zm522.6 794.15l66.8 46.78-88.93 127c-9.17-6.4-11.43-18.98-5.1-28.2l-.04-.02c-6.5 9.06-19.1 11.25-28.25 4.83-9.05-6.33-11.32-18.64-5.33-27.8l-.1-.08c-6.58 8.76-18.94 10.82-27.97 4.5l88.92-127.02zm85.34-19.9l-29-20.3c-10.43-7.3-24.82-4.77-32.13 5.65l-14.84 21.2 66.8 46.77 14.84-21.2c7.3-10.42 4.76-24.8-5.66-32.1zM831.84 997.6l6 34.07 34.08-6c-3.3-18.83-21.25-31.4-40.07-28.07zm-48-1002.7L746.8 64.6l-13.94-7.4L769.9-12.5l13.94 7.42zm-38.12-29.1l-3.7 6.98c-6.06 11.38-5.87 24.34-.84 35.2l18.48-34.78c4.1-7.7 13.68-10.64 21.36-6.56l13.93 7.4c7.7 4.1 10.6 13.7 6.5 21.4l-18.47 34.75c11.8-1.9 22.65-9 28.7-20.38l3.7-6.98c8.22-15.44 2.4-34.57-13-42.76l-13.93-7.4c-15.4-8.2-34.52-2.32-42.73 13.1zM714.35 92l13.93 7.42c15.4 8.2 34.52 2.3 42.73-13.12l3.7-7c6.06-11.37 5.87-24.33.84-35.18L757.06 78.9c-4.1 7.7-13.68 10.64-21.36 6.55l-13.93-7.4c-7.7-4.1-10.6-13.68-6.5-21.4l18.48-34.75c-11.8 1.9-22.65 8.98-28.7 20.37l-3.72 6.98c-8.2 15.44-2.4 34.57 13 42.76zm69.5 690.84L746.8 852.5l-13.94-7.4 37.05-69.67 13.94 7.4zm-38.13-29.12l-3.7 6.98c-6.06 11.38-5.87 24.34-.84 35.2l18.48-34.78c4.1-7.7 13.68-10.64 21.36-6.56l13.93 7.4c7.7 4.1 10.6 13.7 6.5 21.4l-18.47 34.76c11.8-1.9 22.65-9 28.7-20.37l3.7-7c8.22-15.42 2.4-34.56-13-42.75l-13.93-7.4c-15.4-8.2-34.52-2.32-42.73 13.12zm-31.36 126.2l13.93 7.42c15.4 8.2 34.52 2.32 42.73-13.12l3.7-7c6.07-11.37 5.88-24.33.85-35.17l-18.5 34.76c-4.08 7.72-13.66 10.66-21.35 6.57l-13.93-7.4c-7.68-4.1-10.6-13.68-6.5-21.4l18.48-34.75c-11.8 1.9-22.65 8.98-28.7 20.37l-3.72 6.97c-8.2 15.44-2.4 34.57 13 42.76z"/></g></svg>