<?xml version="1.0" encoding="UTF-8"?>
<svg width="178px" height="177px" viewBox="0 0 178 177" version="1.1" xmlns="http://www.w3.org/2000/svg" xmlns:xlink="http://www.w3.org/1999/xlink">
    <!-- Generator: Sketch 47.1 (45422) - http://www.bohemiancoding.com/sketch -->
    <title>XMLID_690_</title>
    <desc>Created with Sketch.</desc>
    <defs></defs>
    <g id="Page-1" stroke="none" stroke-width="1" fill="none" fill-rule="evenodd">
        <g id="digitalocean" transform="translate(-88.000000, 0.000000)" fill-rule="nonzero" fill="#0080FF">
            <g id="XMLID_690_" transform="translate(88.000000, 0.000000)">
                <g id="XMLID_691_">
                    <g id="XMLID_44_">
                        <g id="XMLID_48_">
                            <path d="M89,176.5 L89,142.3 C125.2,142.3 153.3,106.4 139.4,68.3 C134.3,54.3 123,43 108.9,37.9 C70.8,24.1 34.9,52.1 34.9,88.3 C34.9,88.3 34.9,88.3 34.9,88.3 L0.8,88.3 C0.8,30.6 56.6,-14.4 117.1,4.5 C143.5,12.8 164.6,33.8 172.8,60.2 C191.7,120.7 146.7,176.5 89,176.5 Z" id="XMLID_49_"></path>
                        </g>
                        <polygon id="XMLID_47_" points="89.1 142.5 55 142.5 55 108.4 55 108.4 89.1 108.4 89.1 108.4"></polygon>
                        <polygon id="XMLID_46_" points="55 168.6 28.9 168.6 28.9 168.6 28.9 142.5 55 142.5"></polygon>
                        <path d="M28.9,142.5 L7,142.5 C7,142.5 7,142.5 7,142.5 L7,120.6 C7,120.6 7,120.6 7,120.6 L28.9,120.6 C28.9,120.6 28.9,120.6 28.9,120.6 L28.9,142.5 Z" id="XMLID_45_"></path>
                    </g>
                </g>
            </g>
        </g>
    </g>
</svg>