<?xml version="1.0" encoding="UTF-8"?>
<svg width="432px" height="296px" viewBox="0 0 432 296" version="1.1" xmlns="http://www.w3.org/2000/svg" xmlns:xlink="http://www.w3.org/1999/xlink">
    <!-- Generator: Sketch 47.1 (45422) - http://www.bohemiancoding.com/sketch -->
    <title>laravel</title>
    <desc>Created with Sketch.</desc>
    <defs></defs>
    <g id="Page-1" stroke="none" stroke-width="1" fill="none" fill-rule="evenodd">
        <g id="laravel" fill-rule="nonzero" fill="#FB503B">
            <path d="M429.8,138.2 C426.9,135 387.5,85.6 380.5,77.2 C373.5,68.8 370.2,70.3 365.9,71 C361.6,71.7 311.7,80 305.9,81 C300.1,82 296.5,84.3 300,89.3 C303.2,93.7 336,140.3 343.2,150.5 L212.7,181.8 L109.1,8.3 C105,2.2 104.1,-5.32907052e-15 94.7,0.5 C85.3,0.9 13.3,6.9 8.2,7.3 C3.1,7.7 -2.6,10 2.6,22.1 C7.7,34.2 89.5,210.4 91.8,215.5 C94.1,220.6 100,228.9 113.9,225.6 C128.1,222.2 177.4,209.3 204.3,202.3 C218.5,228.1 247.6,280.3 252.9,287.8 C260.1,297.8 265,296.1 276,292.8 C284.6,290.2 410.4,245 416.1,242.6 C421.8,240.3 425.3,238.6 421.4,232.9 C418.6,228.7 385.4,184.3 368,161 C379.9,157.8 422.2,146.6 426.8,145.3 C432,144 432.7,141.4 429.8,138.2 Z M192.6,186.7 C191,187 118,204.5 114.1,205.4 C110.2,206.3 110.2,205.8 109.8,204.5 C109.4,203.2 22.9,24.9 21.7,22.7 C20.5,20.5 20.6,18.7 21.7,18.7 C22.8,18.7 90.7,12.6 93.1,12.5 C95.5,12.4 95.2,12.9 96.1,14.4 C96.1,14.4 191.8,179.6 193.5,182.5 C195.2,185.5 194.2,186.4 192.6,186.7 Z M398.7,225.3 C399.9,227.1 401,228.3 397.4,229.6 C393.7,230.9 273.7,271.4 271.4,272.4 C269.1,273.4 267.2,273.7 264.2,269.4 C261.2,265.1 222.2,197.5 222.2,197.5 L349.4,164.4 C352.6,163.4 353.6,162.7 355.6,165.9 C357.6,169.1 397.5,223.5 398.7,225.3 Z M406.8,135 C403.9,135.6 357.2,147.2 357.2,147.2 L319,94.8 C317.9,93.3 317,91.8 319.7,91.4 C322.4,91 365.8,83.2 367.7,82.8 C369.7,82.4 371.4,81.8 373.8,85.1 C376.2,88.4 409.2,130.2 410.5,131.8 C411.8,133.4 409.7,134.4 406.8,135 Z" id="Shape"></path>
        </g>
    </g>
</svg>