<?xml version="1.0" encoding="UTF-8"?>
<svg width="1028px" height="728px" viewBox="0 0 1028 728" version="1.1" xmlns="http://www.w3.org/2000/svg" xmlns:xlink="http://www.w3.org/1999/xlink">
    <!-- Generator: Sketch 47.1 (45422) - http://www.bohemiancoding.com/sketch -->
    <title>Group</title>
    <desc>Created with Sketch.</desc>
    <defs>
        <linearGradient x1="50%" y1="88.7514962%" x2="50%" y2="100%" id="linearGradient-1">
            <stop stop-color="#C6C6C6" offset="0%"></stop>
            <stop stop-color="#CAC8C8" offset="100%"></stop>
        </linearGradient>
        <filter x="-0.0%" y="0.0%" width="100.0%" height="100.0%" filterUnits="objectBoundingBox" id="filter-2">
            <feGaussianBlur stdDeviation="0" in="SourceGraphic"></feGaussianBlur>
        </filter>
        <linearGradient x1="50%" y1="0%" x2="50%" y2="100%" id="linearGradient-3">
            <stop stop-color="#191919" offset="0%"></stop>
            <stop stop-color="#070707" offset="100%"></stop>
        </linearGradient>
        <linearGradient x1="50%" y1="0%" x2="50%" y2="100%" id="linearGradient-4">
            <stop stop-color="#D8D8D8" offset="0%"></stop>
            <stop stop-color="#D6D6D6" offset="100%"></stop>
        </linearGradient>
        <linearGradient x1="50%" y1="0%" x2="50%" y2="100%" id="linearGradient-5">
            <stop stop-color="#F1F3EF" offset="0%"></stop>
            <stop stop-color="#E9E9E4" offset="100%"></stop>
        </linearGradient>
        <linearGradient x1="50%" y1="0%" x2="50%" y2="100%" id="linearGradient-6">
            <stop stop-color="#DEDED3" offset="0%"></stop>
            <stop stop-color="#EEEEE8" offset="100%"></stop>
        </linearGradient>
        <linearGradient x1="53.2534523%" y1="43.6996491%" x2="72.25737%" y2="55.2882012%" id="linearGradient-7">
            <stop stop-color="#FFFFFF" stop-opacity="0.05" offset="0%"></stop>
            <stop stop-color="#FFFFFF" stop-opacity="0" offset="100%"></stop>
        </linearGradient>
        <linearGradient x1="50%" y1="0%" x2="50%" y2="100%" id="linearGradient-8">
            <stop stop-color="#39413D" offset="0%"></stop>
            <stop stop-color="#000000" offset="100%"></stop>
        </linearGradient>
        <linearGradient x1="50%" y1="0%" x2="50%" y2="100%" id="linearGradient-9">
            <stop stop-color="#1B2220" offset="0%"></stop>
            <stop stop-color="#141615" offset="100%"></stop>
        </linearGradient>
        <linearGradient x1="50%" y1="14.4228182%" x2="50%" y2="100%" id="linearGradient-10">
            <stop stop-color="#101111" offset="0%"></stop>
            <stop stop-color="#191A19" offset="53.4568939%"></stop>
            <stop stop-color="#1B1F1C" offset="100%"></stop>
        </linearGradient>
        <linearGradient x1="50%" y1="0%" x2="50%" y2="100%" id="linearGradient-11">
            <stop stop-color="#29305F" offset="0%"></stop>
            <stop stop-color="#20274C" offset="100%"></stop>
        </linearGradient>
    </defs>
    <g id="Page-1" stroke="none" stroke-width="1" fill="none" fill-rule="evenodd">
        <g id="large" transform="translate(-206.000000, -167.000000)">
            <g id="Group" transform="translate(194.000000, 166.000000)">
                <g id="iMac">
                    <path d="M567.828194,646 L578.679674,723.059837 C579.141653,726.340499 576.829901,729 573.518582,729 L380.481454,729 C377.169082,729 374.857635,726.345808 375.320362,723.059837 L386.171842,646 L567.828194,646 Z" id="base" fill="url(#linearGradient-1)"></path>
                    <path d="M578.710454,725 C577.887951,727.331962 575.666206,729 573.054476,729 L380.996346,729 C378.391181,729 376.166357,727.330332 375.341699,725 L578.710454,725 Z" id="Rectangle-14" fill="#F0EFEF"></path>
                    <polygon id="shadow" fill="#000000" opacity="0.11" filter="url(#filter-2)" points="386.973389 640 385.366455 652 568.66333 652 566.912598 640"></polygon>
                    <g id="upper" transform="translate(12.000000, 1.000000)">
                        <path d="M19.9998697,0 C8.95424668,0 0,8.95190811 0,19.9925395 L0,560 L940,560 L940,19.9925395 C940,8.95096482 931.053918,0 920.00013,0 L19.9998697,0 Z" id="bezel" fill="url(#linearGradient-3)"></path>
                        <rect id="panel" fill="#2A2A2A" x="37" y="36" width="866" height="488"></rect>
                        <path d="M0,560 L0,624.990702 C0,636.041532 8.94608221,645 19.9998697,645 L920.00013,645 C931.045753,645 940,636.044147 940,624.990702 L940,560 L0,560 Z" id="frame-bottom" fill="url(#linearGradient-4)"></path>
                    </g>
                    <path d="M474.468302,591.694192 C475.693047,591.694192 477.170684,591.948243 478.901561,592.456696 C480.64846,592.965498 481.807719,593.21955 482.379337,593.21955 C483.113975,593.21955 484.314337,592.932605 485.979727,592.358365 C487.645116,591.784475 489.090358,591.49718 490.314755,591.49718 C492.323255,591.49718 494.111258,592.038526 495.678766,593.121218 C496.560401,593.744449 497.434025,594.589187 498.299289,595.655433 C496.993033,596.771019 496.037899,597.763429 495.433886,598.632662 C494.339766,600.20736 493.79288,601.946177 493.79288,603.848762 C493.79288,605.931913 494.372509,607.810003 495.531768,609.483382 C496.691027,611.156412 498.013655,612.214259 499.5,612.657274 C498.878919,614.674987 497.850286,616.784383 496.413404,618.981962 C494.241884,622.27833 492.086387,623.926514 489.94761,623.926514 C489.09837,623.926514 487.922739,623.657066 486.420719,623.11467 C484.934722,622.572274 483.677581,622.302825 482.648948,622.302825 C481.619967,622.302825 480.419953,622.582772 479.048558,623.139165 C477.693187,623.713055 476.591055,624 475.741814,624 C473.178417,624 470.663787,621.819918 468.198272,617.456254 C465.732757,613.141231 464.5,608.909142 464.5,604.759288 C464.499997,600.904427 465.438867,597.763429 467.316602,595.335594 C469.210534,592.907759 471.594503,591.694192 474.468267,591.694192 M489.89846,582 C489.963599,582.21327 490.004703,582.401933 490.021074,582.565912 C490.037098,582.729995 490.045458,582.894009 490.045458,583.058022 C490.045458,584.107856 489.800578,585.255951 489.310819,586.502762 C488.820712,587.749223 488.045318,588.905751 486.983942,589.971997 C486.069562,590.874124 485.163195,591.480908 484.265187,591.792698 C483.693918,591.973263 482.828306,592.112537 481.669047,592.210868 C481.70179,589.717596 482.346558,587.560609 483.604048,585.739908 C484.87756,583.919207 486.975582,582.672571 489.89846,582.000175" id="branding" fill="#000000"></path>
                    <g id="camera" transform="translate(473.000000, 18.000000)">
                        <circle id="lens" fill="#141414" cx="4" cy="4" r="4"></circle>
                        <circle id="aperture" fill-opacity="0.695714614" fill="#190E37" cx="4" cy="4" r="2"></circle>
                    </g>
                </g>
                <g id="iPad-Minimus" transform="translate(637.000000, 290.000000)">
                    <g id="Page-1">
                        <g id="Artboard-2">
                            <g id="Dribbble-Shot">
                                <g id="base">
                                    <path d="M16.691502,0.5670315 C7.860414,0.5670315 0.701403,7.728202 0.701403,16.5589997 L0.701403,422.078483 C0.701403,430.910603 7.871203,438.070451 16.691502,438.070451 L323.308498,438.070451 C332.139586,438.070451 339.298597,430.909281 339.298597,422.078483 L339.298597,16.5589997 C339.298597,7.7268795 332.128797,0.5670315 323.308498,0.5670315 L16.691502,0.5670315 L16.691502,0.5670315 Z" id="Base" fill="url(#linearGradient-5)"></path>
                                    <polygon id="screen" stroke="#000000" stroke-width="2" fill="#2A2A2A" points="34.561122 38.963064 34.561122 399.674419 305.438878 399.674419 305.438878 38.963064"></polygon>
                                </g>
                                <g id="home-button" transform="translate(159.000000, 408.000000)">
                                    <path d="M11,21.616279 C16.746418,21.616279 21.40481,16.963807 21.40481,11.224692 C21.40481,5.485577 16.746418,0.833105 11,0.833105 C5.253582,0.833105 0.59519,5.485577 0.59519,11.224692 C0.59519,16.963807 5.253582,21.616279 11,21.616279 L11,21.616279 Z" id="home" fill="url(#linearGradient-6)"></path>
                                    <path d="M9.300984,7.525992 C8.193989,7.525992 7.296593,8.418291 7.296593,9.527835 L7.296593,12.921549 C7.296593,14.027137 8.190028,14.923393 9.300984,14.923393 L12.699016,14.923393 C13.806011,14.923393 14.703407,14.031093 14.703407,12.921549 L14.703407,9.527835 C14.703407,8.422248 13.809972,7.525992 12.699016,7.525992 L9.300984,7.525992 L9.300984,7.525992 Z" id="home-icon" stroke="#B3B5B7" fill="#D8D8D8" opacity="0.5"></path>
                                </g>
                                <g id="camera" transform="translate(167.000000, 18.000000)">
                                    <path d="M3,5.1114911 C4.363557,5.1114911 5.468938,4.0075148 5.468938,2.6456908 C5.468938,1.2838669 4.363557,0.1798906 3,0.1798906 C1.636443,0.1798906 0.531062,1.2838669 0.531062,2.6456908 C0.531062,4.0075148 1.636443,5.1114911 3,5.1114911 L3,5.1114911 Z" id="frame" fill="#D4D4D4"></path>
                                    <path d="M3,3.7024624 C3.584381,3.7024624 4.058116,3.2293297 4.058116,2.6456908 C4.058116,2.062052 3.584381,1.5889193 3,1.5889193 C2.415619,1.5889193 1.941884,2.062052 1.941884,2.6456908 C1.941884,3.2293297 2.415619,3.7024624 3,3.7024624 L3,3.7024624 Z" id="aperture" fill="#444EAA" opacity="0.8"></path>
                                </g>
                                <path d="M209.212514,0.5670315 L255.645202,0.5670315 C305.360668,0.5670315 345.647295,40.858831 345.647295,90.561284 L345.647295,348.428456 C345.647295,398.137192 305.351985,438.422709 255.645202,438.422709 L252.573507,438.422709 L176.451628,6.7140805 C186.603795,2.7454672 197.653692,0.5670315 209.212514,0.5670315 L209.212514,0.5670315 Z" id="Rectangle-5" fill="url(#linearGradient-7)" opacity="0.6"></path>
                            </g>
                        </g>
                    </g>
                </g>
                <g id="MinimusSVG" transform="translate(927.000000, 490.000000)">
                    <g id="Page-1">
                        <g id="Artboard-1">
                            <g id="Ta-Da!">
                                <g id="Minimus-Sketch">
                                    <g id="base" transform="translate(1.000000, 1.000000)">
                                        <path d="M14.3169445,0.568439472 C6.44771262,0.568439472 0.0684394716,6.94726565 0.0684394716,14.817842 L0.0684394716,222.800307 C0.0684394716,230.670034 6.44696471,237.049709 14.3169445,237.049709 L97.6499324,237.049709 C105.519164,237.049709 111.898437,230.670883 111.898437,222.800307 L111.898437,14.817842 C111.898437,6.94811428 105.519912,0.568439472 97.6499324,0.568439472 L14.3169445,0.568439472 L14.3169445,0.568439472 Z" id="antenna-edging" fill="url(#linearGradient-8)"></path>
                                        <path d="M15.7403652,1.99302543 C7.87177682,1.99302543 1.49302543,8.37089572 1.49302543,16.2396721 L1.49302543,221.378477 C1.49302543,229.246682 7.8733339,235.625123 15.7403652,235.625123 L96.2265118,235.625123 C104.0951,235.625123 110.473852,229.247253 110.473852,221.378477 L110.473852,16.2396721 C110.473852,8.37146626 104.093543,1.99302543 96.2265118,1.99302543 L15.7403652,1.99302543 L15.7403652,1.99302543 Z" id="glass" fill="url(#linearGradient-9)"></path>
                                        <polygon id="view-port" stroke="#000000" stroke-width="2" fill="#2A2A2A" points="7.90366226 34.0462096 7.90366226 204.284232 104.063215 204.284232 104.063215 34.0462096"></polygon>
                                    </g>
                                    <g id="edge-buttons" fill="#000000">
                                        <polygon id="Rectangle-4-copy" points="0 56.7711455 0 64.9625148 1.06843947 64.9625148 1.06843947 56.7711455"></polygon>
                                        <polygon id="Rectangle-4-copy-2" points="0 76.715349 0 84.9067183 1.06843947 84.9067183 1.06843947 76.715349"></polygon>
                                        <polygon id="Rectangle-4" points="0 34.3339166 0 45.0183113 1.06843947 45.0183113 1.06843947 34.3339166"></polygon>
                                        <polygon id="Rectangle-8" points="75.8592025 0.5 75.8592025 1.56843947 93.666527 1.56843947 93.666527 0.5"></polygon>
                                    </g>
                                    <path d="M56.9834385,232.707512 C62.6875729,232.707512 67.3116867,228.083398 67.3116867,222.379264 C67.3116867,216.675129 62.6875729,212.051015 56.9834385,212.051015 C51.2793041,212.051015 46.6551903,216.675129 46.6551903,222.379264 C46.6551903,228.083398 51.2793041,232.707512 56.9834385,232.707512 L56.9834385,232.707512 Z" id="home" fill="url(#linearGradient-10)"></path>
                                    <g id="top-elements" transform="translate(47.000000, 11.000000)">
                                        <path d="M1.96751088,10.8687894 C1.28053422,10.8687894 0.723629732,11.4282731 0.723629732,12.1153021 L0.723629732,12.1153021 C0.723629732,12.8037322 1.28293073,13.3618149 1.96751088,13.3618149 L17.9993661,13.3618149 C18.6863428,13.3618149 19.2432472,12.8023312 19.2432472,12.1153021 L19.2432472,12.1153021 C19.2432472,11.4268721 18.6839462,10.8687894 17.9993661,10.8687894 L1.96751088,10.8687894 L1.96751088,10.8687894 Z" id="ear-piece" fill="#060707" opacity="0.443963068"></path>
                                        <g id="Camera" transform="translate(7.000000, 0.000000)">
                                            <path d="M2.98343849,4.4581526 C4.16360432,4.4581526 5.12031743,3.50143949 5.12031743,2.32127366 C5.12031743,1.14110783 4.16360432,0.184394716 2.98343849,0.184394716 C1.80327265,0.184394716 0.846559543,1.14110783 0.846559543,2.32127366 C0.846559543,3.50143949 1.80327265,4.4581526 2.98343849,4.4581526 L2.98343849,4.4581526 Z" id="Oval-2" fill="#1A1E1D"></path>
                                            <path d="M3.16151173,3.38971313 C3.65324746,3.38971313 4.05187796,2.99108264 4.05187796,2.4993469 C4.05187796,2.00761117 3.65324746,1.60898068 3.16151173,1.60898068 C2.669776,1.60898068 2.2711455,2.00761117 2.2711455,2.4993469 C2.2711455,2.99108264 2.669776,3.38971313 3.16151173,3.38971313 L3.16151173,3.38971313 Z" id="Oval-3" fill="url(#linearGradient-11)" opacity="0.545170455"></path>
                                        </g>
                                    </g>
                                </g>
                            </g>
                        </g>
                    </g>
                </g>
            </g>
        </g>
    </g>
</svg>