<svg xmlns="http://www.w3.org/2000/svg" viewBox="0 0 100 125"><path d="M87 15v27h-4V21.828L48.414 56.414l-2.828-2.828L80.172 19H60v-4h27zM75 76c0 .542-.458 1-1 1H26c-.542 0-1-.458-1-1V28c0-.542.458-1 1-1h32v-4H26c-2.757 0-5 2.243-5 5v48c0 2.757 2.243 5 5 5h48c2.757 0 5-2.243 5-5V44h-4v32z"/><text y="115" font-size="5" font-weight="bold" font-family="'Helvetica Neue', Helvetica, Arial-Unicode, Arial, Sans-serif">Created by Yuri Mazursky</text><text y="120" font-size="5" font-weight="bold" font-family="'Helvetica Neue', Helvetica, Arial-Unicode, Arial, Sans-serif">from the Noun Project</text></svg>