<?xml version="1.0" encoding="UTF-8"?>
<svg width="607px" height="28px" viewBox="0 0 607 28" version="1.1" xmlns="http://www.w3.org/2000/svg" xmlns:xlink="http://www.w3.org/1999/xlink">
    <!-- Generator: Sketch 47.1 (45422) - http://www.bohemiancoding.com/sketch -->
    <title>browser</title>
    <desc>Created with Sketch.</desc>
    <defs></defs>
    <g id="Page-1" stroke="none" stroke-width="1" fill="none" fill-rule="evenodd">
        <g id="browser">
            <path d="M0,27.054 L0,3.287 C0,1.472 1.472,0 3.287,0 L603.521,0 C605.335,0 606.808,1.472 606.808,3.287 L606.808,27.054" id="Shape" fill="#E2E2E2" fill-rule="nonzero"></path>
            <path d="M581.773,7.92 L595.892,7.92" id="Shape" stroke="#FFFFFF" stroke-width="2"></path>
            <path d="M581.773,13.404 L595.892,13.404" id="Shape" stroke="#FFFFFF" stroke-width="2"></path>
            <path d="M581.773,18.92 L595.892,18.92" id="Shape" stroke="#FFFFFF" stroke-width="2"></path>
            <g id="Group" transform="translate(11.000000, 7.000000)" fill-rule="nonzero">
                <path d="M6.522,11.753 C3.58,11.753 1.188,9.36 1.188,6.421 C1.188,3.479 3.581,1.086 6.522,1.086 C9.463,1.086 11.857,3.479 11.857,6.421 C11.857,9.36 9.464,11.753 6.522,11.753 L6.522,11.753 Z" id="Shape" fill="#F15E5E"></path>
                <path d="M6.522,0.586 C9.744,0.586 12.356,3.198 12.356,6.42 C12.356,9.642 9.744,12.254 6.522,12.254 C3.3,12.254 0.688,9.642 0.688,6.42 C0.688,3.198 3.3,0.586 6.522,0.586 L6.522,0.586 Z M6.522,1.586 C3.856,1.586 1.688,3.754 1.688,6.42 C1.688,9.085 3.856,11.254 6.522,11.254 C9.188,11.254 11.356,9.085 11.356,6.42 C11.356,3.754 9.188,1.586 6.522,1.586 L6.522,1.586 Z" id="Shape" fill="#F04F4E"></path>
            </g>
            <g id="Group" transform="translate(31.000000, 7.000000)" fill-rule="nonzero">
                <path d="M5.939,11.753 C2.997,11.753 0.605,9.36 0.605,6.421 C0.605,3.479 2.998,1.086 5.939,1.086 C8.88,1.086 11.273,3.479 11.273,6.421 C11.274,9.36 8.881,11.753 5.939,11.753 L5.939,11.753 Z" id="Shape" fill="#FBBF43"></path>
                <path d="M5.939,0.586 C9.162,0.586 11.773,3.198 11.773,6.42 C11.773,9.642 9.162,12.254 5.939,12.254 C2.717,12.254 0.105,9.642 0.105,6.42 C0.105,3.198 2.717,0.586 5.939,0.586 L5.939,0.586 Z M5.939,1.586 C3.273,1.586 1.105,3.754 1.105,6.42 C1.105,9.085 3.273,11.254 5.939,11.254 C8.605,11.254 10.773,9.085 10.773,6.42 C10.773,3.754 8.604,1.586 5.939,1.586 L5.939,1.586 Z" id="Shape" fill="#E5AD4A"></path>
            </g>
            <g id="Group" transform="translate(50.000000, 7.000000)" fill-rule="nonzero">
                <path d="M6.356,11.753 C3.414,11.753 1.021,9.36 1.021,6.421 C1.021,3.479 3.414,1.086 6.356,1.086 C9.298,1.086 11.69,3.479 11.69,6.421 C11.691,9.36 9.298,11.753 6.356,11.753 L6.356,11.753 Z" id="Shape" fill="#53B94D"></path>
                <path d="M6.356,0.586 C9.578,0.586 12.19,3.198 12.19,6.42 C12.19,9.642 9.578,12.254 6.356,12.254 C3.134,12.254 0.522,9.642 0.522,6.42 C0.522,3.198 3.134,0.586 6.356,0.586 L6.356,0.586 Z M6.356,1.586 C3.69,1.586 1.522,3.754 1.522,6.42 C1.522,9.085 3.69,11.254 6.356,11.254 C9.022,11.254 11.19,9.085 11.19,6.42 C11.19,3.754 9.021,1.586 6.356,1.586 L6.356,1.586 Z" id="Shape" fill="#45B64D"></path>
            </g>
            <path d="M102.13,18.354 C102.13,19.897 100.826,21.149 99.218,21.149 L87.751,21.149 C86.143,21.149 84.839,19.897 84.839,18.354 L84.839,8.486 C84.839,6.943 86.143,5.691 87.751,5.691 L99.218,5.691 C100.826,5.691 102.13,6.943 102.13,8.486 L102.13,18.354 L102.13,18.354 Z" id="Shape" fill="#FDFEFF" fill-rule="nonzero"></path>
            <polygon id="Shape" fill="#E2E2E2" fill-rule="nonzero" points="90.925 13.322 95.118 9.141 95.764 9.774 92.217 13.322 95.764 16.868 95.131 17.514"></polygon>
            <path d="M121.58,18.354 C121.58,19.897 120.276,21.149 118.668,21.149 L107.201,21.149 C105.593,21.149 104.289,19.897 104.289,18.354 L104.289,8.486 C104.289,6.943 105.593,5.691 107.201,5.691 L118.668,5.691 C120.276,5.691 121.58,6.943 121.58,8.486 L121.58,18.354 Z" id="Shape" fill="#FDFEFF" fill-rule="nonzero"></path>
            <polygon id="Shape" fill="#E2E2E2" fill-rule="nonzero" points="111.969 17.515 111.336 16.869 114.883 13.323 111.336 9.775 111.982 9.142 116.175 13.323"></polygon>
            <path d="M556.08,18.354 C556.08,19.897 554.776,21.149 553.169,21.149 L141.702,21.149 C140.094,21.149 138.79,19.897 138.79,18.354 L138.79,8.486 C138.79,6.943 140.094,5.691 141.702,5.691 L553.169,5.691 C554.776,5.691 556.08,6.943 556.08,8.486 L556.08,18.354 L556.08,18.354 Z" id="Shape" fill="#FDFEFF" fill-rule="nonzero"></path>
            <path d="M549.558,15.111 L548.488,14.784 C548.458,14.885 548.421,14.986 548.381,15.084 C547.703,16.71 545.829,17.481 544.203,16.803 L544.192,16.784 L544.129,16.776 C544.088,16.759 543.973,16.709 543.744,16.579 C543.519,16.453 543.415,16.351 543.385,16.322 L543.371,16.297 L543.311,16.244 C542.291,15.34 541.959,13.886 542.485,12.625 C542.779,11.919 543.303,11.356 543.966,11.017 L543.95,12.021 L546.876,10.391 L544.003,8.671 L543.986,9.794 C542.838,10.199 541.924,11.059 541.451,12.194 C540.747,13.882 541.182,15.83 542.536,17.052 C542.623,17.154 542.821,17.342 543.191,17.553 C543.389,17.665 543.558,17.751 543.687,17.805 C543.729,17.823 543.765,17.834 543.796,17.846 C545.985,18.743 548.5,17.7 549.411,15.515 C549.468,15.382 549.517,15.247 549.558,15.111" id="Shape" fill="#E2E2E2" fill-rule="nonzero"></path>
        </g>
    </g>
</svg>